<mxfile host="app.diagrams.net" modified="2024-05-07T02:26:53.788Z" agent="Mozilla/5.0 (Windows NT 10.0; Win64; x64) AppleWebKit/537.36 (KHTML, like Gecko) Chrome/124.0.0.0 Safari/537.36" etag="oLk_4ly9MXi3Sd0Zzg0L" version="24.2.8" type="device">
  <diagram name="Page-1" id="0QLVTyBH8GF_LAYRk_Er">
    <mxGraphModel dx="3249" dy="720" grid="1" gridSize="10" guides="1" tooltips="1" connect="1" arrows="1" fold="1" page="0" pageScale="1" pageWidth="827" pageHeight="1169" math="0" shadow="0">
      <root>
        <mxCell id="0" />
        <mxCell id="1" parent="0" />
        <mxCell id="ca2eoPQA2FVx0qUJagWw-1" value="" style="whiteSpace=wrap;html=1;aspect=fixed;fillColor=none;movable=1;resizable=1;rotatable=1;deletable=1;editable=1;locked=0;connectable=1;" parent="1" vertex="1">
          <mxGeometry x="-1170" y="670" width="1010" height="1010" as="geometry" />
        </mxCell>
        <mxCell id="ca2eoPQA2FVx0qUJagWw-5" value="" style="image;aspect=fixed;perimeter=ellipsePerimeter;html=1;align=center;shadow=0;dashed=0;fontColor=#4277BB;labelBackgroundColor=default;fontSize=12;spacingTop=3;image=img/lib/ibm/users/sensor.svg;" parent="1" vertex="1">
          <mxGeometry x="-850" y="1380" width="60" height="60" as="geometry" />
        </mxCell>
        <mxCell id="ca2eoPQA2FVx0qUJagWw-6" value="" style="image;aspect=fixed;perimeter=ellipsePerimeter;html=1;align=center;shadow=0;dashed=0;fontColor=#4277BB;labelBackgroundColor=default;fontSize=12;spacingTop=3;image=img/lib/ibm/users/sensor.svg;" parent="1" vertex="1">
          <mxGeometry x="-960" y="1300" width="60" height="60" as="geometry" />
        </mxCell>
        <mxCell id="ca2eoPQA2FVx0qUJagWw-7" value="" style="image;aspect=fixed;perimeter=ellipsePerimeter;html=1;align=center;shadow=0;dashed=0;fontColor=#4277BB;labelBackgroundColor=default;fontSize=12;spacingTop=3;image=img/lib/ibm/users/sensor.svg;" parent="1" vertex="1">
          <mxGeometry x="-1080" y="1240" width="60" height="60" as="geometry" />
        </mxCell>
        <mxCell id="ca2eoPQA2FVx0qUJagWw-8" value="" style="image;aspect=fixed;perimeter=ellipsePerimeter;html=1;align=center;shadow=0;dashed=0;fontColor=#4277BB;labelBackgroundColor=default;fontSize=12;spacingTop=3;image=img/lib/ibm/users/sensor.svg;" parent="1" vertex="1">
          <mxGeometry x="-350.0000000000001" y="760" width="60" height="60" as="geometry" />
        </mxCell>
        <mxCell id="ca2eoPQA2FVx0qUJagWw-9" value="" style="image;aspect=fixed;perimeter=ellipsePerimeter;html=1;align=center;shadow=0;dashed=0;fontColor=#4277BB;labelBackgroundColor=default;fontSize=12;spacingTop=3;image=img/lib/ibm/users/sensor.svg;" parent="1" vertex="1">
          <mxGeometry x="-1020" y="1040" width="60" height="60" as="geometry" />
        </mxCell>
        <mxCell id="ca2eoPQA2FVx0qUJagWw-10" value="" style="image;aspect=fixed;perimeter=ellipsePerimeter;html=1;align=center;shadow=0;dashed=0;fontColor=#4277BB;labelBackgroundColor=default;fontSize=12;spacingTop=3;image=img/lib/ibm/users/sensor.svg;" parent="1" vertex="1">
          <mxGeometry x="-900" y="1060" width="60" height="60" as="geometry" />
        </mxCell>
        <mxCell id="ca2eoPQA2FVx0qUJagWw-11" value="" style="image;aspect=fixed;perimeter=ellipsePerimeter;html=1;align=center;shadow=0;dashed=0;fontColor=#4277BB;labelBackgroundColor=default;fontSize=12;spacingTop=3;image=img/lib/ibm/users/sensor.svg;" parent="1" vertex="1">
          <mxGeometry x="-820" y="1160" width="60" height="60" as="geometry" />
        </mxCell>
        <mxCell id="ca2eoPQA2FVx0qUJagWw-12" value="" style="image;aspect=fixed;perimeter=ellipsePerimeter;html=1;align=center;shadow=0;dashed=0;fontColor=#4277BB;labelBackgroundColor=default;fontSize=12;spacingTop=3;image=img/lib/ibm/users/sensor.svg;" parent="1" vertex="1">
          <mxGeometry x="-960" y="820" width="60" height="60" as="geometry" />
        </mxCell>
        <mxCell id="ca2eoPQA2FVx0qUJagWw-13" value="" style="image;aspect=fixed;perimeter=ellipsePerimeter;html=1;align=center;shadow=0;dashed=0;fontColor=#4277BB;labelBackgroundColor=default;fontSize=12;spacingTop=3;image=img/lib/ibm/users/sensor.svg;" parent="1" vertex="1">
          <mxGeometry x="-850" y="730" width="60" height="60" as="geometry" />
        </mxCell>
        <mxCell id="ca2eoPQA2FVx0qUJagWw-14" value="" style="image;aspect=fixed;perimeter=ellipsePerimeter;html=1;align=center;shadow=0;dashed=0;fontColor=#4277BB;labelBackgroundColor=default;fontSize=12;spacingTop=3;image=img/lib/ibm/users/sensor.svg;" parent="1" vertex="1">
          <mxGeometry x="-1050" y="740" width="60" height="60" as="geometry" />
        </mxCell>
        <mxCell id="ca2eoPQA2FVx0qUJagWw-15" value="" style="image;aspect=fixed;perimeter=ellipsePerimeter;html=1;align=center;shadow=0;dashed=0;fontColor=#4277BB;labelBackgroundColor=default;fontSize=12;spacingTop=3;image=img/lib/ibm/users/sensor.svg;" parent="1" vertex="1">
          <mxGeometry x="-820" y="950" width="60" height="60" as="geometry" />
        </mxCell>
        <mxCell id="ca2eoPQA2FVx0qUJagWw-16" value="" style="image;aspect=fixed;perimeter=ellipsePerimeter;html=1;align=center;shadow=0;dashed=0;fontColor=#4277BB;labelBackgroundColor=default;fontSize=12;spacingTop=3;image=img/lib/ibm/users/sensor.svg;" parent="1" vertex="1">
          <mxGeometry x="-600" y="920" width="60" height="60" as="geometry" />
        </mxCell>
        <mxCell id="ca2eoPQA2FVx0qUJagWw-17" value="" style="image;aspect=fixed;perimeter=ellipsePerimeter;html=1;align=center;shadow=0;dashed=0;fontColor=#4277BB;labelBackgroundColor=default;fontSize=12;spacingTop=3;image=img/lib/ibm/users/sensor.svg;" parent="1" vertex="1">
          <mxGeometry x="-320" y="1030" width="60" height="60" as="geometry" />
        </mxCell>
        <mxCell id="ca2eoPQA2FVx0qUJagWw-18" value="" style="image;aspect=fixed;perimeter=ellipsePerimeter;html=1;align=center;shadow=0;dashed=0;fontColor=#4277BB;labelBackgroundColor=default;fontSize=12;spacingTop=3;image=img/lib/ibm/users/sensor.svg;" parent="1" vertex="1">
          <mxGeometry x="-420" y="1020" width="60" height="60" as="geometry" />
        </mxCell>
        <mxCell id="ca2eoPQA2FVx0qUJagWw-19" value="" style="image;aspect=fixed;perimeter=ellipsePerimeter;html=1;align=center;shadow=0;dashed=0;fontColor=#4277BB;labelBackgroundColor=default;fontSize=12;spacingTop=3;image=img/lib/ibm/users/sensor.svg;" parent="1" vertex="1">
          <mxGeometry x="-360" y="1160" width="60" height="60" as="geometry" />
        </mxCell>
        <mxCell id="ca2eoPQA2FVx0qUJagWw-20" value="" style="image;aspect=fixed;perimeter=ellipsePerimeter;html=1;align=center;shadow=0;dashed=0;fontColor=#4277BB;labelBackgroundColor=default;fontSize=12;spacingTop=3;image=img/lib/ibm/users/sensor.svg;" parent="1" vertex="1">
          <mxGeometry x="-250" y="1320" width="60" height="60" as="geometry" />
        </mxCell>
        <mxCell id="ca2eoPQA2FVx0qUJagWw-21" value="" style="image;aspect=fixed;perimeter=ellipsePerimeter;html=1;align=center;shadow=0;dashed=0;fontColor=#4277BB;labelBackgroundColor=default;fontSize=12;spacingTop=3;image=img/lib/ibm/users/sensor.svg;" parent="1" vertex="1">
          <mxGeometry x="-330" y="1400" width="60" height="60" as="geometry" />
        </mxCell>
        <mxCell id="ca2eoPQA2FVx0qUJagWw-22" value="" style="image;aspect=fixed;perimeter=ellipsePerimeter;html=1;align=center;shadow=0;dashed=0;fontColor=#4277BB;labelBackgroundColor=default;fontSize=12;spacingTop=3;image=img/lib/ibm/users/sensor.svg;" parent="1" vertex="1">
          <mxGeometry x="-250" y="1500" width="60" height="60" as="geometry" />
        </mxCell>
        <mxCell id="ca2eoPQA2FVx0qUJagWw-23" value="" style="image;aspect=fixed;perimeter=ellipsePerimeter;html=1;align=center;shadow=0;dashed=0;fontColor=#4277BB;labelBackgroundColor=default;fontSize=12;spacingTop=3;image=img/lib/ibm/users/sensor.svg;" parent="1" vertex="1">
          <mxGeometry x="-540" y="1490" width="60" height="60" as="geometry" />
        </mxCell>
        <mxCell id="ca2eoPQA2FVx0qUJagWw-24" value="" style="image;aspect=fixed;perimeter=ellipsePerimeter;html=1;align=center;shadow=0;dashed=0;fontColor=#4277BB;labelBackgroundColor=default;fontSize=12;spacingTop=3;image=img/lib/ibm/users/sensor.svg;" parent="1" vertex="1">
          <mxGeometry x="-610" y="1360" width="60" height="60" as="geometry" />
        </mxCell>
        <mxCell id="ca2eoPQA2FVx0qUJagWw-25" value="" style="image;aspect=fixed;perimeter=ellipsePerimeter;html=1;align=center;shadow=0;dashed=0;fontColor=#4277BB;labelBackgroundColor=default;fontSize=12;spacingTop=3;image=img/lib/ibm/users/sensor.svg;" parent="1" vertex="1">
          <mxGeometry x="-490" y="1610" width="60" height="60" as="geometry" />
        </mxCell>
        <mxCell id="ca2eoPQA2FVx0qUJagWw-26" value="" style="image;aspect=fixed;perimeter=ellipsePerimeter;html=1;align=center;shadow=0;dashed=0;fontColor=#4277BB;labelBackgroundColor=default;fontSize=12;spacingTop=3;image=img/lib/ibm/users/sensor.svg;" parent="1" vertex="1">
          <mxGeometry x="-600" y="1030" width="60" height="60" as="geometry" />
        </mxCell>
        <mxCell id="ca2eoPQA2FVx0qUJagWw-27" value="" style="image;aspect=fixed;perimeter=ellipsePerimeter;html=1;align=center;shadow=0;dashed=0;fontColor=#4277BB;labelBackgroundColor=default;fontSize=12;spacingTop=3;image=img/lib/ibm/users/sensor.svg;" parent="1" vertex="1">
          <mxGeometry x="-1040" y="1380" width="60" height="60" as="geometry" />
        </mxCell>
        <mxCell id="Lml63t_bM94KS8NLxwf1-3" value="" style="image;points=[];aspect=fixed;html=1;align=center;shadow=0;dashed=0;image=img/lib/allied_telesis/buildings/Building_Cluster.svg;" parent="1" vertex="1">
          <mxGeometry x="-1111.2" y="1540" width="121.2" height="111" as="geometry" />
        </mxCell>
        <mxCell id="F16AG0Zg8DlrjXfRnkdK-1" value="" style="endArrow=classic;html=1;rounded=0;strokeWidth=4;" edge="1" parent="1" source="ca2eoPQA2FVx0qUJagWw-5" target="Lml63t_bM94KS8NLxwf1-3">
          <mxGeometry width="50" height="50" relative="1" as="geometry">
            <mxPoint x="-600" y="1180" as="sourcePoint" />
            <mxPoint x="-550" y="1130" as="targetPoint" />
          </mxGeometry>
        </mxCell>
        <mxCell id="F16AG0Zg8DlrjXfRnkdK-2" value="" style="endArrow=classic;html=1;rounded=0;strokeWidth=4;" edge="1" parent="1" source="ca2eoPQA2FVx0qUJagWw-11" target="ca2eoPQA2FVx0qUJagWw-6">
          <mxGeometry width="50" height="50" relative="1" as="geometry">
            <mxPoint x="-600" y="1180" as="sourcePoint" />
            <mxPoint x="-550" y="1130" as="targetPoint" />
          </mxGeometry>
        </mxCell>
        <mxCell id="F16AG0Zg8DlrjXfRnkdK-3" value="" style="endArrow=classic;html=1;rounded=0;strokeWidth=4;" edge="1" parent="1" source="ca2eoPQA2FVx0qUJagWw-6" target="ca2eoPQA2FVx0qUJagWw-27">
          <mxGeometry width="50" height="50" relative="1" as="geometry">
            <mxPoint x="-600" y="1180" as="sourcePoint" />
            <mxPoint x="-550" y="1130" as="targetPoint" />
          </mxGeometry>
        </mxCell>
        <mxCell id="F16AG0Zg8DlrjXfRnkdK-4" value="" style="endArrow=classic;html=1;rounded=0;strokeWidth=4;" edge="1" parent="1" source="ca2eoPQA2FVx0qUJagWw-27" target="Lml63t_bM94KS8NLxwf1-3">
          <mxGeometry width="50" height="50" relative="1" as="geometry">
            <mxPoint x="-600" y="1180" as="sourcePoint" />
            <mxPoint x="-550" y="1130" as="targetPoint" />
          </mxGeometry>
        </mxCell>
        <mxCell id="F16AG0Zg8DlrjXfRnkdK-5" value="" style="endArrow=classic;html=1;rounded=0;strokeWidth=4;" edge="1" parent="1" source="ca2eoPQA2FVx0qUJagWw-10" target="ca2eoPQA2FVx0qUJagWw-11">
          <mxGeometry width="50" height="50" relative="1" as="geometry">
            <mxPoint x="-600" y="1180" as="sourcePoint" />
            <mxPoint x="-550" y="1130" as="targetPoint" />
          </mxGeometry>
        </mxCell>
        <mxCell id="F16AG0Zg8DlrjXfRnkdK-6" value="" style="endArrow=classic;html=1;rounded=0;strokeWidth=4;" edge="1" parent="1" source="ca2eoPQA2FVx0qUJagWw-15" target="ca2eoPQA2FVx0qUJagWw-10">
          <mxGeometry width="50" height="50" relative="1" as="geometry">
            <mxPoint x="-600" y="1180" as="sourcePoint" />
            <mxPoint x="-550" y="1130" as="targetPoint" />
          </mxGeometry>
        </mxCell>
      </root>
    </mxGraphModel>
  </diagram>
</mxfile>
